<svg xmlns="http://www.w3.org/2000/svg" width="132.306" height="76.955" viewBox="0 0 132.306 76.955">
  <path id="Tracé_1" data-name="Tracé 1" d="M35.523,56.946c2.8-7.347,5-14.228,7.982-20.666,2.464-5.34,2.22-9.987-.1-15.219C40.74,15.2,38.709,9,36.422,2.939,35.456.454,35.645.143,38.1.119H48.4A2.625,2.625,0,0,1,51.308,2.15q8.481,23.414,17.04,46.828c.9,2.485,1.832,4.958,2.975,8.016,1.587-4.241,2.975-7.92,4.34-11.6,2.753-7.359,5.484-14.717,8.259-22.064a11.139,11.139,0,0,0,.666-4.05q0-8.314,0-16.629C84.511.657,85.122,0,87.009,0c6.871.131,13.743,0,20.6.179a24.13,24.13,0,0,1,11.534,3.237C129.914,9.664,130.5,24.047,120.4,31.633a33.022,33.022,0,0,1-8.814,4.2,36.81,36.81,0,0,1,12.133,4.336c6.017,3.643,8.614,9.342,8.581,16.426a17.286,17.286,0,0,1-9.414,16.1c-5.684,3.046-11.822,4.038-18.095,4.241-.466,0-1.032.143-1.277-.6.488-.86,1.377-.657,2.076-.824,7.871-1.828,11.1-5.3,12.311-13.786a33.689,33.689,0,0,0,0-10.13c-1.21-7.729-6.239-13.14-13.565-14.789-.655-.143-1.465.084-1.909-.7.167-.478.544-.49.877-.573,6.594-1.66,9.813-6.57,10.746-13.379a28.993,28.993,0,0,0-.821-12.985,10.634,10.634,0,0,0-10.168-7.98H95.546a2.669,2.669,0,0,0-2.931,2.043Q85.544,22.351,78.372,41.357q-6.294,16.76-12.644,33.556c-.222.6-.289,1.541-1.11,1.529s-.788-1-1.01-1.589Q55.5,53.482,47.4,32.1c-.155-.406-.344-.8-.555-1.3a7.1,7.1,0,0,0-1.41,2.963q-7.56,19.878-15.064,39.768a11.278,11.278,0,0,1-.588,1.481c-.266.5-.211,1.4-.932,1.386s-.722-.86-.921-1.4q-4.618-12.161-9.269-24.358Q9.669,26.914.688,3.178C-.444.179-.411.119,2.575.119c3.33,0,6.583.084,9.869,0a2.888,2.888,0,0,1,3.175,2.389c5.273,14.634,10.624,29.244,15.952,43.853C32.792,49.623,34.035,52.956,35.523,56.946Z" transform="translate(0 0)" fill="#D5D5D5"/>
</svg>
