<svg xmlns="http://www.w3.org/2000/svg" xmlns:xlink="http://www.w3.org/1999/xlink" width="1620" height="209" viewBox="0 0 1620 209">
  <defs>
    <clipPath id="clip-path">
      <rect width="1620" height="209" fill="none"/>
    </clipPath>
  </defs>
  <g id="Groupe_19" data-name="Groupe 19" transform="translate(418 -1208)">
    <g id="Grille_de_répétition_4" data-name="Grille de répétition 4" transform="translate(-418 1208)" clip-path="url(#clip-path)">
      <g transform="translate(-154 -300)">
        <circle id="Ellipse_1" data-name="Ellipse 1" cx="2.5" cy="2.5" r="2.5" transform="translate(154 300)" fill="#6a6967"/>
      </g>
      <g transform="translate(-20 -300)">
        <circle id="Ellipse_1-2" data-name="Ellipse 1" cx="2.5" cy="2.5" r="2.5" transform="translate(154 300)" fill="#6a6967"/>
      </g>
      <g transform="translate(114 -300)">
        <circle id="Ellipse_1-3" data-name="Ellipse 1" cx="2.5" cy="2.5" r="2.5" transform="translate(154 300)" fill="#6a6967"/>
      </g>
      <g transform="translate(248 -300)">
        <circle id="Ellipse_1-4" data-name="Ellipse 1" cx="2.5" cy="2.5" r="2.5" transform="translate(154 300)" fill="#6a6967"/>
      </g>
      <g transform="translate(382 -300)">
        <circle id="Ellipse_1-5" data-name="Ellipse 1" cx="2.5" cy="2.5" r="2.5" transform="translate(154 300)" fill="#6a6967"/>
      </g>
      <g transform="translate(516 -300)">
        <circle id="Ellipse_1-6" data-name="Ellipse 1" cx="2.5" cy="2.5" r="2.5" transform="translate(154 300)" fill="#6a6967"/>
      </g>
      <g transform="translate(650 -300)">
        <circle id="Ellipse_1-7" data-name="Ellipse 1" cx="2.5" cy="2.5" r="2.5" transform="translate(154 300)" fill="#6a6967"/>
      </g>
      <g transform="translate(784 -300)">
        <circle id="Ellipse_1-8" data-name="Ellipse 1" cx="2.5" cy="2.5" r="2.5" transform="translate(154 300)" fill="#6a6967"/>
      </g>
      <g transform="translate(918 -300)">
        <circle id="Ellipse_1-9" data-name="Ellipse 1" cx="2.5" cy="2.5" r="2.5" transform="translate(154 300)" fill="#6a6967"/>
      </g>
      <g transform="translate(1052 -300)">
        <circle id="Ellipse_1-10" data-name="Ellipse 1" cx="2.5" cy="2.5" r="2.5" transform="translate(154 300)" fill="#6a6967"/>
      </g>
      <g transform="translate(1186 -300)">
        <circle id="Ellipse_1-11" data-name="Ellipse 1" cx="2.5" cy="2.5" r="2.5" transform="translate(154 300)" fill="#6a6967"/>
      </g>
      <g transform="translate(1320 -300)">
        <circle id="Ellipse_1-12" data-name="Ellipse 1" cx="2.5" cy="2.5" r="2.5" transform="translate(154 300)" fill="#6a6967"/>
      </g>
      <g transform="translate(1454 -300)">
        <circle id="Ellipse_1-13" data-name="Ellipse 1" cx="2.5" cy="2.5" r="2.5" transform="translate(154 300)" fill="#6a6967"/>
      </g>
      <g transform="translate(-154 -227)">
        <circle id="Ellipse_1-14" data-name="Ellipse 1" cx="2.5" cy="2.5" r="2.5" transform="translate(154 300)" fill="#6a6967"/>
      </g>
      <g transform="translate(-20 -227)">
        <circle id="Ellipse_1-15" data-name="Ellipse 1" cx="2.5" cy="2.5" r="2.5" transform="translate(154 300)" fill="#6a6967"/>
      </g>
      <g transform="translate(114 -227)">
        <circle id="Ellipse_1-16" data-name="Ellipse 1" cx="2.5" cy="2.5" r="2.5" transform="translate(154 300)" fill="#6a6967"/>
      </g>
      <g transform="translate(248 -227)">
        <circle id="Ellipse_1-17" data-name="Ellipse 1" cx="2.5" cy="2.5" r="2.5" transform="translate(154 300)" fill="#6a6967"/>
      </g>
      <g transform="translate(382 -227)">
        <circle id="Ellipse_1-18" data-name="Ellipse 1" cx="2.5" cy="2.5" r="2.5" transform="translate(154 300)" fill="#6a6967"/>
      </g>
      <g transform="translate(516 -227)">
        <circle id="Ellipse_1-19" data-name="Ellipse 1" cx="2.5" cy="2.5" r="2.5" transform="translate(154 300)" fill="#6a6967"/>
      </g>
      <g transform="translate(650 -227)">
        <circle id="Ellipse_1-20" data-name="Ellipse 1" cx="2.5" cy="2.5" r="2.5" transform="translate(154 300)" fill="#6a6967"/>
      </g>
      <g transform="translate(784 -227)">
        <circle id="Ellipse_1-21" data-name="Ellipse 1" cx="2.5" cy="2.5" r="2.5" transform="translate(154 300)" fill="#6a6967"/>
      </g>
      <g transform="translate(918 -227)">
        <circle id="Ellipse_1-22" data-name="Ellipse 1" cx="2.5" cy="2.5" r="2.5" transform="translate(154 300)" fill="#6a6967"/>
      </g>
      <g transform="translate(1052 -227)">
        <circle id="Ellipse_1-23" data-name="Ellipse 1" cx="2.5" cy="2.5" r="2.5" transform="translate(154 300)" fill="#6a6967"/>
      </g>
      <g transform="translate(1186 -227)">
        <circle id="Ellipse_1-24" data-name="Ellipse 1" cx="2.5" cy="2.5" r="2.5" transform="translate(154 300)" fill="#6a6967"/>
      </g>
      <g transform="translate(1320 -227)">
        <circle id="Ellipse_1-25" data-name="Ellipse 1" cx="2.5" cy="2.5" r="2.5" transform="translate(154 300)" fill="#6a6967"/>
      </g>
      <g transform="translate(1454 -227)">
        <circle id="Ellipse_1-26" data-name="Ellipse 1" cx="2.5" cy="2.5" r="2.5" transform="translate(154 300)" fill="#6a6967"/>
      </g>
      <g transform="translate(-154 -154)">
        <circle id="Ellipse_1-27" data-name="Ellipse 1" cx="2.5" cy="2.5" r="2.5" transform="translate(154 300)" fill="#6a6967"/>
      </g>
      <g transform="translate(-20 -154)">
        <circle id="Ellipse_1-28" data-name="Ellipse 1" cx="2.5" cy="2.5" r="2.5" transform="translate(154 300)" fill="#6a6967"/>
      </g>
      <g transform="translate(114 -154)">
        <circle id="Ellipse_1-29" data-name="Ellipse 1" cx="2.5" cy="2.5" r="2.5" transform="translate(154 300)" fill="#6a6967"/>
      </g>
      <g transform="translate(248 -154)">
        <circle id="Ellipse_1-30" data-name="Ellipse 1" cx="2.5" cy="2.5" r="2.5" transform="translate(154 300)" fill="#6a6967"/>
      </g>
      <g transform="translate(382 -154)">
        <circle id="Ellipse_1-31" data-name="Ellipse 1" cx="2.5" cy="2.5" r="2.5" transform="translate(154 300)" fill="#6a6967"/>
      </g>
      <g transform="translate(516 -154)">
        <circle id="Ellipse_1-32" data-name="Ellipse 1" cx="2.5" cy="2.5" r="2.5" transform="translate(154 300)" fill="#6a6967"/>
      </g>
      <g transform="translate(650 -154)">
        <circle id="Ellipse_1-33" data-name="Ellipse 1" cx="2.5" cy="2.5" r="2.5" transform="translate(154 300)" fill="#6a6967"/>
      </g>
      <g transform="translate(784 -154)">
        <circle id="Ellipse_1-34" data-name="Ellipse 1" cx="2.5" cy="2.5" r="2.5" transform="translate(154 300)" fill="#6a6967"/>
      </g>
      <g transform="translate(918 -154)">
        <circle id="Ellipse_1-35" data-name="Ellipse 1" cx="2.5" cy="2.5" r="2.5" transform="translate(154 300)" fill="#6a6967"/>
      </g>
      <g transform="translate(1052 -154)">
        <circle id="Ellipse_1-36" data-name="Ellipse 1" cx="2.5" cy="2.5" r="2.5" transform="translate(154 300)" fill="#6a6967"/>
      </g>
      <g transform="translate(1186 -154)">
        <circle id="Ellipse_1-37" data-name="Ellipse 1" cx="2.5" cy="2.5" r="2.5" transform="translate(154 300)" fill="#6a6967"/>
      </g>
      <g transform="translate(1320 -154)">
        <circle id="Ellipse_1-38" data-name="Ellipse 1" cx="2.5" cy="2.5" r="2.5" transform="translate(154 300)" fill="#6a6967"/>
      </g>
      <g transform="translate(1454 -154)">
        <circle id="Ellipse_1-39" data-name="Ellipse 1" cx="2.5" cy="2.5" r="2.5" transform="translate(154 300)" fill="#6a6967"/>
      </g>
    </g>
  </g>
</svg>
